<svg width="41" height="48" fill="none" xmlns="http://www.w3.org/2000/svg"><path fill-rule="evenodd" clip-rule="evenodd" d="m6 .713 7.008 6.634L0 7.34v32.187h34V27.22l7 6.627V.713H6Zm27.692 25.729-19.87-18.81h19.87v18.81Zm-6.169 8.377H5.38V13.17h1.565v20.182h20.578v1.466ZM10.61 43.812l-.818 1.685-.818-1.685h-.686l1.194 2.246v1.309h.62v-1.309l1.191-2.246h-.683Zm1.028 3.555.288-.828h1.377l.29.828h.645l-1.345-3.555h-.555l-1.342 3.555h.642Zm.976-2.8.515 1.474h-1.03l.515-1.474Zm3.257 1.389a.808.808 0 0 0-.134.451c0 .3.105.543.315.73.211.186.493.279.845.279.351 0 .654-.095.908-.286l.2.237h.688l-.522-.618c.205-.28.307-.639.307-1.076h-.515c0 .239-.05.456-.148.651l-.687-.81.242-.176a1.34 1.34 0 0 0 .369-.371.785.785 0 0 0 .112-.41.732.732 0 0 0-.249-.564.895.895 0 0 0-.635-.23c-.286 0-.514.082-.683.245-.17.16-.254.38-.254.659 0 .114.027.232.08.354.056.122.153.27.29.444-.263.189-.44.352-.529.49Zm1.604.786a.905.905 0 0 1-.561.2.584.584 0 0 1-.425-.154.533.533 0 0 1-.159-.4c0-.19.098-.36.293-.508l.076-.054.776.916Zm-.637-1.575c-.168-.206-.252-.378-.252-.515 0-.119.035-.217.103-.295a.348.348 0 0 1 .276-.117.37.37 0 0 1 .266.1c.07.065.105.144.105.236a.44.44 0 0 1-.151.345l-.076.06-.271.186Zm5.786 1.931c.244-.213.384-.51.42-.888h-.615c-.033.254-.11.435-.232.544-.122.11-.305.164-.547.164-.265 0-.467-.101-.605-.303-.137-.202-.206-.495-.206-.879v-.315c.004-.38.077-.666.22-.862.145-.197.352-.295.62-.295.231 0 .406.057.525.17.12.113.195.297.225.553h.615c-.04-.39-.178-.69-.418-.904-.239-.213-.555-.32-.947-.32-.291 0-.548.07-.771.208a1.346 1.346 0 0 0-.51.59 2.08 2.08 0 0 0-.179.887v.332c.005.327.066.614.183.862.118.247.284.438.498.574.217.133.467.2.75.2.405 0 .73-.106.974-.318Zm3.63-.498c.12-.263.181-.57.181-.918v-.197a2.148 2.148 0 0 0-.186-.911 1.355 1.355 0 0 0-.52-.6c-.223-.14-.479-.21-.769-.21-.29 0-.546.07-.771.212-.223.14-.396.342-.52.608a2.174 2.174 0 0 0-.183.918v.2c.002.34.063.64.185.9.124.261.298.462.523.604.226.14.483.21.771.21.292 0 .549-.07.772-.21.224-.142.397-.344.517-.606Zm-.661-2.009c.15.21.224.512.224.906v.185c0 .4-.074.705-.222.913-.146.209-.356.313-.63.313a.738.738 0 0 1-.634-.32c-.152-.213-.227-.515-.227-.906v-.205c.003-.382.08-.678.229-.886a.73.73 0 0 1 .627-.315c.274 0 .485.105.633.315Z" fill="#AFB1B8"/></svg>